<svg width="80" height="59" viewBox="0 0 80 59" fill="none" xmlns="http://www.w3.org/2000/svg">
<path d="M80 15.6159C80 13.362 77.162 9.55196 77.162 9.55196C76.0375 7.78109 71.9679 2.09285 70.5756 1.23424C69.1834 0.429302 67.6841 0 66.0241 0C64.3641 0 62.8648 0.429302 61.4726 1.23424C60.0803 2.03918 59.1165 3.27343 58.4739 4.77598L51.6734 20.9821C51.6734 20.9821 51.0843 22.27 50.2276 22.27C49.3708 22.27 48.8353 21.0358 48.8353 21.0358L47.2289 17.3867L46.2115 15.1866L41.4993 4.77598C40.8032 3.21976 39.7858 2.03918 38.4471 1.23424C37.1084 0.429302 35.6091 0 33.9491 0C32.2892 0 30.7898 0.429302 29.3976 1.23424C28.0054 2.03918 26.988 3.27343 26.2918 4.77598L19.3307 19.6942C19.3307 19.6942 18.7416 20.9821 17.8849 20.9821C17.0281 20.9821 16.5997 20.0162 16.4926 19.7479V19.6942L14.9398 15.9378C14.3507 14.3279 13.4404 13.1474 12.2088 12.3961C11.0308 11.6448 9.6921 11.2692 8.19277 11.2692C6.10442 11.2692 4.23025 11.9668 2.51673 13.362C0.85676 14.7572 0 16.4745 0 18.46C0 19.5332 0.21419 20.4992 0.64257 21.4114L15.4752 53.4481C16.2249 55.0043 17.2959 56.1849 18.6345 56.9898C20.0268 57.7948 21.5261 58.2241 23.1861 58.2241C24.8461 58.2241 26.3454 57.7948 27.7376 56.9898C29.1299 56.1849 30.0937 54.9506 30.7363 53.4481L37.4833 37.5102C37.5368 37.3493 38.0723 36.2223 39.0361 36.2223C39.7858 36.2223 40.2677 36.9736 40.4819 37.3493L40.589 37.5639L42.0884 40.8373C42.1954 41.1056 43.1058 43.0375 43.1058 43.0375L47.7644 53.3944C48.4605 54.9506 49.4779 56.1312 50.8166 56.9361C52.1553 57.7411 53.6546 58.1704 55.3146 58.1704C56.9746 58.1704 58.4739 57.7411 59.8661 56.9361C61.2584 56.1312 62.2758 54.897 62.9719 53.3944L71.4859 35.0954C71.8608 34.2368 75.7162 26.1337 77.8581 21.6797C79.0897 19.0503 80 17.7624 80 15.6159Z" fill="#161313"/>
</svg>
